<?xml version="1.0" standalone="no"?>
<!DOCTYPE svg PUBLIC "-//W3C//DTD SVG 20010904//EN"
 "http://www.w3.org/TR/2001/REC-SVG-20010904/DTD/svg10.dtd">
<svg version="1.0" xmlns="http://www.w3.org/2000/svg"
 width="128.000000pt" height="128.000000pt" viewBox="0 0 128.000000 128.000000"
 preserveAspectRatio="xMidYMid meet">

<g transform="translate(0.000000,128.000000) scale(0.100000,-0.100000)"
fill="#000000" stroke="none">
<path d="M360 1099 c-140 -77 -265 -147 -277 -155 -21 -13 -23 -22 -23 -117 0
-85 -3 -107 -20 -132 -27 -41 -26 -45 18 -45 l37 0 0 -103 c0 -108 9 -162 25
-152 6 4 8 10 5 15 -3 5 -5 115 -6 244 0 159 -3 236 -10 236 -7 0 -10 -34 -7
-100 2 -82 1 -97 -10 -83 -11 16 -18 213 -7 213 5 0 214 -114 418 -229 l129
-72 280 159 279 160 -53 29 c-29 17 -89 50 -133 73 -44 24 -144 78 -222 121
-78 44 -147 79 -155 79 -7 0 -128 -64 -268 -141z"/>
<path d="M1178 893 c-8 -21 4 -443 12 -438 13 8 13 445 1 445 -6 0 -11 -3 -13
-7z"/>
<path d="M875 710 c-119 -65 -160 -93 -159 -107 3 -85 16 -308 20 -350 l5 -53
31 23 c30 22 30 23 25 89 l-6 68 97 56 c185 108 182 105 182 142 0 18 -6 35
-13 38 -7 2 -61 -20 -119 -50 -143 -73 -150 -75 -146 -40 3 24 20 38 128 101
130 76 138 85 123 141 l-8 31 -160 -89z"/>
<path d="M233 610 c-86 -131 -91 -142 -81 -170 12 -36 15 -36 44 -9 l23 21
122 -48 122 -49 23 -50 c13 -27 24 -56 24 -62 0 -17 69 -17 76 0 7 19 -183
469 -207 490 -12 9 -29 17 -38 17 -10 0 -52 -55 -108 -140z m155 -52 c17 -45
30 -83 29 -84 -1 -1 -35 13 -75 32 l-73 33 38 51 c20 27 40 50 44 50 3 0 20
-37 37 -82z"/>
<path d="M641 593 c0 -7 -8 -10 -17 -6 -15 5 -16 -10 -10 -163 9 -234 15 -284
32 -284 12 0 15 27 13 162 -1 138 -13 331 -18 291z"/>
<path d="M928 249 c-164 -97 -268 -166 -268 -175 0 -12 9 -10 43 11 23 14 147
87 274 163 128 75 233 143 233 150 0 6 -3 12 -7 12 -5 -1 -128 -73 -275 -161z"/>
<path d="M102 344 c2 -8 75 -52 163 -98 365 -189 375 -194 375 -177 0 10 -32
32 -83 58 -45 23 -164 85 -264 138 -100 52 -184 95 -188 95 -3 0 -5 -7 -3 -16z"/>
</g>
</svg>
