<?xml version="1.0" standalone="no"?>
<!DOCTYPE svg PUBLIC "-//W3C//DTD SVG 20010904//EN"
 "http://www.w3.org/TR/2001/REC-SVG-20010904/DTD/svg10.dtd">
<svg version="1.0" xmlns="http://www.w3.org/2000/svg"
 width="500.000000pt" height="500.000000pt" viewBox="0 0 500.000000 500.000000"
 preserveAspectRatio="xMidYMid meet">

<g transform="translate(0.000000,500.000000) scale(0.100000,-0.100000)"
fill="#000000" stroke="none">
<path d="M2374 4824 c-38 -20 -87 -46 -109 -59 -22 -13 -53 -31 -70 -39 -16
-9 -37 -20 -45 -25 -34 -23 -229 -131 -235 -131 -4 0 -38 -18 -75 -40 -38 -22
-92 -53 -120 -68 -73 -39 -52 -27 -432 -238 -53 -30 -98 -54 -101 -54 -3 0
-47 -24 -99 -52 -143 -81 -147 -83 -243 -133 -49 -26 -97 -53 -105 -60 -8 -7
-26 -16 -40 -20 -14 -4 -32 -13 -40 -20 -8 -7 -40 -26 -70 -42 -30 -17 -71
-39 -91 -51 -20 -11 -47 -26 -60 -33 -111 -58 -177 -99 -183 -115 -3 -8 -6
-187 -6 -397 l0 -382 -77 -128 c-106 -174 -108 -178 -93 -187 12 -7 160 -24
230 -25 19 -1 47 -2 62 -3 l27 -2 -24 -35 -24 -36 5 -272 c3 -150 10 -294 15
-320 5 -26 9 -92 9 -145 1 -97 1 -97 35 -134 20 -21 44 -38 55 -38 20 0 20 8
20 448 0 421 -2 448 -19 471 -17 22 -17 29 -6 62 13 34 12 40 -11 70 -13 18
-24 38 -24 45 0 10 -47 88 -101 166 -18 25 -19 52 -19 403 0 336 2 376 16 382
16 6 65 -17 259 -126 55 -31 114 -64 130 -73 17 -9 59 -31 95 -49 57 -29 229
-123 270 -149 8 -5 65 -35 125 -66 139 -72 228 -121 284 -158 25 -16 58 -35
75 -43 17 -7 45 -22 61 -32 41 -25 100 -58 165 -93 49 -27 148 -83 190 -108
27 -17 235 -132 380 -211 118 -65 117 -65 180 -23 30 20 87 54 125 75 103 56
175 97 220 124 22 13 51 30 65 37 14 6 48 26 75 43 28 17 61 36 75 43 14 6 32
16 40 21 8 6 65 37 125 71 61 34 117 65 125 70 8 5 87 50 175 100 88 50 167
95 175 100 8 6 24 14 35 20 11 5 38 21 60 34 38 24 93 55 210 121 28 15 141
80 253 144 211 121 295 166 325 175 32 10 17 36 -38 67 -30 17 -58 35 -61 40
-3 5 -12 9 -21 9 -9 0 -24 6 -32 14 -9 7 -56 35 -106 62 -49 27 -112 61 -140
76 -47 25 -147 79 -225 120 -35 18 -55 29 -88 48 -9 6 -35 19 -57 30 -22 11
-71 37 -110 59 -38 22 -101 57 -140 76 -79 41 -97 51 -213 117 -45 27 -97 55
-115 63 -17 8 -63 33 -102 55 -38 21 -86 48 -105 58 -48 25 -166 91 -215 118
-22 13 -67 37 -100 54 -33 18 -67 38 -76 46 -8 8 -19 14 -24 14 -4 0 -42 20
-84 44 -107 61 -115 62 -197 20z"/>
<path d="M4607 3512 c-16 -17 -16 -84 -6 -883 7 -475 16 -868 20 -874 6 -5 21
4 39 25 l29 35 1 838 c0 560 -3 845 -10 858 -13 24 -52 25 -73 1z"/>
<path d="M391 3476 c-9 -11 -11 -41 -7 -108 4 -51 11 -202 16 -336 10 -256 21
-322 51 -322 10 0 23 9 29 19 14 28 14 672 -1 704 -6 14 -23 31 -38 38 -14 7
-29 15 -32 17 -3 1 -12 -4 -18 -12z"/>
<path d="M3990 3085 c-25 -13 -58 -30 -75 -39 -16 -8 -61 -32 -100 -54 -38
-21 -101 -56 -140 -77 -38 -21 -75 -42 -81 -47 -7 -5 -49 -28 -95 -52 -46 -24
-108 -58 -137 -75 -30 -17 -68 -38 -85 -46 -18 -8 -50 -25 -72 -38 -52 -30
-164 -92 -240 -132 -108 -57 -128 -70 -153 -95 -27 -28 -27 -29 2 -410 16
-220 12 -153 30 -510 31 -614 36 -688 53 -701 11 -9 27 -2 75 36 33 26 77 54
97 62 20 8 43 21 51 29 17 14 17 7 -11 351 -14 181 -10 199 60 240 25 15 55
33 66 40 11 7 34 20 50 28 33 18 61 34 187 110 46 27 99 58 118 68 19 10 51
29 70 42 19 13 105 64 190 113 265 154 324 191 332 211 10 29 -12 211 -31 251
-13 27 -22 35 -41 33 -22 -1 -109 -38 -150 -62 -8 -5 -61 -32 -117 -60 -57
-28 -112 -55 -123 -61 -11 -5 -29 -14 -40 -20 -11 -5 -28 -14 -37 -19 -10 -5
-49 -24 -88 -43 -38 -19 -95 -47 -125 -62 -30 -15 -62 -31 -70 -36 -8 -5 -49
-25 -90 -45 -41 -21 -94 -47 -117 -58 -59 -30 -70 -17 -75 90 -4 79 -3 84 21
106 14 13 51 36 81 52 30 15 61 32 69 39 7 6 38 25 67 41 90 51 218 126 246
146 15 11 38 24 50 30 13 5 40 20 60 32 20 12 82 49 138 82 56 33 117 69 135
80 19 11 59 35 90 53 31 18 59 40 62 49 10 26 -18 306 -33 331 -17 27 -18 27
-74 -3z"/>
<path d="M1284 2928 c-12 -5 -27 -23 -35 -38 -12 -24 -56 -93 -165 -254 -10
-16 -31 -47 -46 -70 -15 -22 -34 -50 -43 -61 -8 -11 -69 -101 -133 -200 -65
-99 -141 -213 -168 -253 -84 -126 -114 -176 -122 -207 -8 -28 3 -78 32 -145 5
-14 15 -40 21 -59 7 -25 18 -37 38 -42 25 -7 34 0 103 76 74 80 78 83 113 78
20 -3 41 -9 46 -13 6 -4 42 -20 80 -34 39 -15 89 -36 113 -46 23 -11 48 -20
54 -20 6 0 29 -8 52 -19 36 -17 259 -104 416 -164 30 -11 78 -31 107 -44 28
-13 56 -23 61 -23 14 0 65 -115 138 -314 8 -21 21 -51 29 -67 8 -15 15 -38 15
-49 0 -12 13 -34 28 -50 31 -31 30 -31 179 -10 107 15 135 54 93 133 -11 20
-20 42 -20 49 0 6 -9 30 -19 52 -11 23 -31 70 -46 106 -29 73 -33 83 -69 162
-14 31 -26 63 -26 70 0 8 -7 23 -15 34 -8 10 -15 26 -15 34 0 8 -11 38 -25 65
-13 28 -25 56 -25 63 0 7 -6 23 -14 35 -8 12 -29 60 -46 107 -17 46 -34 89
-39 95 -4 5 -20 44 -36 85 -16 41 -35 84 -42 95 -7 11 -13 26 -13 35 0 8 -7
28 -16 45 -8 16 -27 59 -41 95 -14 36 -33 83 -43 105 -10 22 -21 51 -25 65 -4
14 -11 30 -15 35 -4 6 -22 48 -39 93 -18 46 -36 91 -41 100 -5 10 -18 40 -30
67 -37 88 -44 98 -94 133 -108 76 -163 94 -212 70z m112 -458 c34 -72 53 -118
59 -143 4 -15 11 -30 16 -33 5 -3 9 -13 9 -22 0 -9 7 -30 16 -47 8 -16 29 -66
46 -110 16 -44 36 -91 42 -105 7 -14 23 -53 36 -88 28 -78 20 -93 -37 -65 -49
26 -238 117 -283 137 -19 9 -42 20 -50 25 -8 5 -44 24 -80 41 -36 18 -73 39
-82 48 -16 14 -16 16 4 46 12 17 25 33 28 36 3 3 17 21 30 40 13 19 41 56 62
81 21 25 38 49 38 53 0 8 21 36 70 94 11 13 20 28 20 34 0 19 45 2 56 -22z"/>
<path d="M2498 2308 c-14 -21 -19 -22 -57 -12 -58 16 -66 3 -57 -94 10 -105
26 -548 32 -877 3 -148 10 -333 16 -410 6 -77 13 -184 17 -238 5 -88 9 -101
30 -118 28 -23 49 -24 78 -4 31 22 42 70 37 167 -3 45 -9 256 -14 468 -9 338
-18 595 -35 1008 -2 62 -7 117 -10 122 -10 16 -21 12 -37 -12z"/>
<path d="M4606 1557 c-48 -28 -104 -62 -125 -74 -20 -12 -47 -28 -61 -35 -14
-7 -45 -27 -70 -43 -67 -44 -82 -53 -117 -70 -17 -8 -53 -29 -80 -47 -26 -18
-60 -40 -75 -48 -28 -16 -166 -98 -253 -152 -27 -17 -72 -43 -100 -59 -51 -29
-91 -52 -157 -92 -21 -12 -83 -49 -139 -82 -55 -33 -111 -67 -124 -75 -24 -15
-202 -121 -258 -153 -18 -10 -79 -47 -137 -82 -58 -35 -149 -90 -203 -121
-113 -65 -141 -95 -133 -139 4 -16 10 -33 14 -36 6 -6 169 83 222 121 8 6 25
16 37 23 31 17 270 157 378 222 50 29 95 58 102 64 6 6 40 25 75 43 35 18 84
47 110 65 26 18 51 33 55 33 3 0 29 15 57 33 66 42 84 53 126 74 19 10 55 32
80 48 61 40 81 52 110 67 14 7 55 32 91 55 36 24 69 43 73 43 7 0 88 50 148
91 15 11 30 19 34 19 4 0 30 14 58 32 28 17 71 42 96 56 25 14 56 33 69 44 13
10 28 18 34 18 6 0 18 7 27 15 8 8 43 28 75 46 33 17 66 38 73 47 22 29 10
103 -17 102 -4 0 -46 -24 -95 -53z"/>
<path d="M400 1381 c-5 -11 -10 -35 -10 -53 0 -26 7 -39 30 -56 16 -12 33 -22
38 -22 5 0 35 -14 68 -31 164 -84 513 -263 539 -276 39 -20 81 -41 435 -220
529 -268 835 -425 845 -433 6 -4 21 -11 35 -15 14 -4 42 -21 63 -38 32 -24 41
-27 48 -16 15 24 10 86 -8 108 -10 11 -92 58 -183 104 -91 46 -196 101 -235
122 -68 37 -122 65 -445 233 -85 44 -175 92 -200 106 -25 14 -56 30 -70 37
-14 6 -32 15 -40 20 -8 4 -71 37 -140 72 -69 35 -179 93 -245 128 -66 36 -158
84 -205 108 -47 24 -125 65 -175 92 -99 53 -129 59 -145 30z"/>
</g>
</svg>
